<svg xmlns="http://www.w3.org/2000/svg" version="1.1" xmlns:xlink="http://www.w3.org/1999/xlink" width="512" height="512" x="0" y="0" viewBox="0 0 340 340" style="enable-background:new 0 0 512 512" xml:space="preserve" class=""><g><path d="M252.186 249.777c-31.422 0-59.92-18.355-68.1-24.13a3.5 3.5 0 1 1 4.038-5.718c7.979 5.635 36.368 23.947 66.757 22.8a3.626 3.626 0 0 0 3.382-2.947l4.633-24.435a3.5 3.5 0 0 1 6.878 1.3l-4.633 24.436a10.546 10.546 0 0 1-10 8.638q-1.478.057-2.955.056z" fill="#ff901f" opacity="1" data-original="#000000"></path><path d="M258.445 219.864c-19.9 0-40.972-6.578-61.444-19.257a3.5 3.5 0 0 1 3.685-5.952c14.835 9.188 37.556 19.6 62.712 18.06l.5-2.668a2.84 2.84 0 0 0-.522-2.257 2.81 2.81 0 0 0-2-1.125c-12.725-1.233-37.221-5.441-58.312-19.77a3.5 3.5 0 1 1 3.934-5.79c19.8 13.454 42.992 17.423 55.053 18.592a9.856 9.856 0 0 1 8.728 11.654l-1 5.3a3.5 3.5 0 0 1-3.112 2.833q-4.073.381-8.222.38zM54.761 306.063a3.584 3.584 0 0 1-.533-.041 3.5 3.5 0 0 1-2.931-3.989l6.893-45.106a3.5 3.5 0 0 1 6.92 1.058l-6.893 45.106a3.5 3.5 0 0 1-3.456 2.972zM70.52 241.741a3.5 3.5 0 0 1-2.268-6.167l20.072-17.06a3.5 3.5 0 0 1 4.533 5.334l-20.072 17.06a3.489 3.489 0 0 1-2.265.833zM61.954 231.928a3.5 3.5 0 0 1-2.268-6.167l20.143-17.12a3.5 3.5 0 1 1 4.534 5.334L64.219 231.1a3.483 3.483 0 0 1-2.265.828zM297.059 54.123a3.5 3.5 0 0 1-2.268-6.167l8.513-7.237a3.5 3.5 0 0 1 4.534 5.334l-8.514 7.237a3.489 3.489 0 0 1-2.265.833zM317.167 37.032a3.5 3.5 0 0 1-2.268-6.167l12.813-10.89a.923.923 0 0 0 .106-1.3l-2.7-3.18a.923.923 0 0 0-1.3-.106l-12.943 11a3.5 3.5 0 1 1-4.533-5.334l12.943-11a7.923 7.923 0 0 1 11.169.907l2.7 3.18a7.923 7.923 0 0 1-.907 11.169L319.432 36.2a3.487 3.487 0 0 1-2.265.832zM288.354 44.432a3.5 3.5 0 0 1-2.268-6.167l8.7-7.4a3.5 3.5 0 0 1 4.533 5.334l-8.7 7.4a3.481 3.481 0 0 1-2.265.833zM99.855 189.643a3.5 3.5 0 0 1-2.268-6.167l95.777-81.4a3.5 3.5 0 0 1 5.524 1.387l4.094 10.42a3.5 3.5 0 0 1-.991 3.947l-9.849 8.37a14.532 14.532 0 0 0-1.659 20.461l4.707 5.539a3.5 3.5 0 0 1-5.334 4.533l-4.707-5.539a21.54 21.54 0 0 1 2.46-30.328l7.943-6.751-1.388-3.533-92.044 78.228a3.487 3.487 0 0 1-2.265.833z" fill="#ff901f" opacity="1" data-original="#000000"></path><path d="M183.426 165.7a3.5 3.5 0 0 1-2.269-6.167L297.38 60.755a1.7 1.7 0 0 0 .194-2.389l-16.508-19.423a1.7 1.7 0 0 0-2.389-.193l-80.183 68.15a3.5 3.5 0 0 1-4.533-5.334l80.182-68.149a8.706 8.706 0 0 1 12.257.994l16.507 19.423a8.693 8.693 0 0 1-.994 12.256l-116.222 98.78a3.491 3.491 0 0 1-2.265.83zM111.761 202.618a3.5 3.5 0 0 1-2.268-6.167l15.912-13.524a5.969 5.969 0 0 0 .682-8.415l-4.513-5.309a3.5 3.5 0 1 1 5.334-4.533l4.513 5.309a12.969 12.969 0 0 1-1.483 18.282l-15.912 13.524a3.489 3.489 0 0 1-2.265.833z" fill="#ff901f" opacity="1" data-original="#000000"></path><path d="M107.866 231.278c-.107 0-.214 0-.322-.014-2.217-.2-4.434-.365-6.591-.482a15.63 15.63 0 0 1-11.021-5.44L78.7 212.131a9.606 9.606 0 0 1 1.1-13.54l17.785-15.115a3.5 3.5 0 0 1 4.934.4L116.222 200a11.235 11.235 0 0 0 15.819 1.283l15.5-13.173a3.5 3.5 0 0 1 4.533 5.334l-15.5 13.173a18.244 18.244 0 0 1-25.686-2.084l-11.435-13.457-15.117 12.849a2.6 2.6 0 0 0-.3 3.672l11.228 13.212a8.6 8.6 0 0 0 6.068 2.984c2.242.122 4.545.29 6.845.5a3.5 3.5 0 0 1-.313 6.985zM182.248 228.6a3.5 3.5 0 0 1-3.5-3.473 13.668 13.668 0 0 0-2.1-7.455 7.7 7.7 0 0 0-5.428-3.559 8.046 8.046 0 0 0-6.437 1.81L152.07 226.7a3.5 3.5 0 1 1-4.527-5.34l12.715-10.777a15.027 15.027 0 0 1 12.04-3.387 14.8 14.8 0 0 1 10.286 6.764 20.611 20.611 0 0 1 1.98 4.085 9.006 9.006 0 0 0 .655-1.19l16.941-37.282a1.753 1.753 0 0 0-.12-1.706 1.524 1.524 0 0 0-1.3-.734 7.5 7.5 0 0 0-1.572.182 11.055 11.055 0 0 1-9.011-2.02 36.265 36.265 0 0 1-7.564-7.785l-6.9 5.863a3.5 3.5 0 1 1-4.533-5.334l10-8.5a3.5 3.5 0 0 1 5.437 1.181 27.918 27.918 0 0 0 7.779 8.994 4.063 4.063 0 0 0 3.305.762 14.6 14.6 0 0 1 3.034-.341h.025a8.521 8.521 0 0 1 7.191 3.949 8.727 8.727 0 0 1 .6 8.4l-16.935 37.267a16.156 16.156 0 0 1-4.214 5.583l-2.862 2.433a3.5 3.5 0 0 1-2.272.833z" fill="#ff901f" opacity="1" data-original="#000000"></path><path d="M141.3 304.734a11.224 11.224 0 0 1-9.14-4.7c-5.993-8.42-15.594-26.474-12.564-52.784a6.621 6.621 0 0 0-4.543-7.074 18.517 18.517 0 0 0-3.176-.7 8.662 8.662 0 0 1-7.3-10.519l1.582-6.936a3.5 3.5 0 0 1 2.849-2.676c.544-.089 13.486-2.061 26.936 7.916a3.828 3.828 0 0 0 4.778-.1l6.815-5.792a3.5 3.5 0 0 1 4.933.4l14.038 16.517a3.5 3.5 0 0 1-.4 4.933l-4.522 3.844a11.617 11.617 0 0 0-4.046 7.607 38.621 38.621 0 0 0 3.417 19.906 4.5 4.5 0 0 0 2.722 2.506 17.089 17.089 0 0 1 4.056 1.88 8.823 8.823 0 0 1 4.044 8.119 8.937 8.937 0 0 1-5.285 7.512l-20.7 9.195a11.067 11.067 0 0 1-4.494.946zm-29.9-74.225a1.668 1.668 0 0 0 .259 1.334 1.621 1.621 0 0 0 1.125.688 25.686 25.686 0 0 1 4.38.972 13.635 13.635 0 0 1 9.383 14.549c-2.763 23.986 5.9 40.322 11.314 47.924a4.189 4.189 0 0 0 5.092 1.408l20.7-9.195a1.913 1.913 0 0 0 1.147-1.641 1.78 1.78 0 0 0-.832-1.694 10.083 10.083 0 0 0-2.4-1.1 11.5 11.5 0 0 1-7.013-6.345 45.628 45.628 0 0 1-3.975-23.51 18.6 18.6 0 0 1 6.471-12.173l1.855-1.576-9.5-11.184-4.147 3.525a10.8 10.8 0 0 1-13.482.392 32.327 32.327 0 0 0-19.37-6.765zM159.534 204.8a3.493 3.493 0 0 1-2.668-1.233l-9.911-11.667a11.538 11.538 0 0 1 1.32-16.265 11.538 11.538 0 0 1 16.265 1.32l9.911 11.66a3.5 3.5 0 0 1-.4 4.934L161.8 203.964a3.486 3.486 0 0 1-2.266.836zm-6.726-23.825a4.538 4.538 0 0 0-.519 6.4l7.644 8.993 6.917-5.879-7.644-8.993a4.538 4.538 0 0 0-6.4-.519z" fill="#ff901f" opacity="1" data-original="#000000"></path><path d="M171.785 194.385a3.5 3.5 0 0 1-2.268-6.167l8.243-7.006-4.739-5.575-7.921 6.733a3.5 3.5 0 1 1-4.533-5.334l10.589-9a3.5 3.5 0 0 1 4.933.4l9.272 10.909a3.5 3.5 0 0 1-.4 4.934l-10.909 9.272a3.491 3.491 0 0 1-2.267.834zM111.612 162.981a3.5 3.5 0 0 1-2.268-6.167L261.221 27.729a10.786 10.786 0 0 1 15.186 1.232l2.773 3.264a3.5 3.5 0 0 1-5.334 4.533l-2.773-3.263a3.778 3.778 0 0 0-5.319-.432L113.877 162.148a3.489 3.489 0 0 1-2.265.833z" fill="#ff901f" opacity="1" data-original="#000000"></path><path d="M95.444 193.4a3.49 3.49 0 0 1-2.668-1.234l-6.376-7.5a9.227 9.227 0 0 1 1.054-12.991l15.648-13.3a9.216 9.216 0 0 1 12.991 1.053l6.376 7.5a3.5 3.5 0 0 1-.4 4.933l-24.359 20.7a3.489 3.489 0 0 1-2.266.839zm13.623-30.219a2.194 2.194 0 0 0-1.431.527l-15.649 13.3a2.218 2.218 0 0 0-.253 3.124l4.109 4.834 19.025-16.17-4.109-4.834a2.2 2.2 0 0 0-1.509-.774 1.422 1.422 0 0 0-.183-.01zM311.08 49.666q-.355 0-.714-.029a8.6 8.6 0 0 1-5.9-3.022l-10.7-12.584a8.657 8.657 0 0 1 .99-12.2l2.789-2.37a8.657 8.657 0 0 1 12.2.99l10.7 12.583a8.657 8.657 0 0 1-.99 12.2l-2.789 2.371a8.592 8.592 0 0 1-5.586 2.061zM303.162 24.4a1.637 1.637 0 0 0-1.074.394l-2.79 2.37a1.657 1.657 0 0 0-.189 2.335L309.8 42.082a1.657 1.657 0 0 0 2.335.189l2.79-2.371a1.656 1.656 0 0 0 .189-2.335l-10.692-12.583a1.644 1.644 0 0 0-1.128-.578c-.039-.004-.083-.004-.132-.004zM218.01 135.076a3.485 3.485 0 0 1-1.785-.492l-8.773-5.214a3.5 3.5 0 0 1-.479-5.676l13.468-11.446a3.5 3.5 0 0 1 4.055-.342l8.774 5.215a3.5 3.5 0 0 1-3.577 6.018l-6.624-3.938-7.829 6.654 4.561 2.711a3.5 3.5 0 0 1-1.791 6.51zM242.4 114.023a3.488 3.488 0 0 1-1.785-.492l-8.551-5.083a3.5 3.5 0 0 1-.479-5.675l13.467-11.447a3.5 3.5 0 0 1 4.056-.342l8.673 5.156a3.5 3.5 0 0 1-3.577 6.018l-6.524-3.878-7.829 6.654 4.341 2.58a3.5 3.5 0 0 1-1.792 6.509zM267.463 93.365a3.487 3.487 0 0 1-1.785-.491l-9-5.347a3.5 3.5 0 0 1-.479-5.676l13.468-11.446a3.5 3.5 0 0 1 4.054-.342l8.851 5.261A3.5 3.5 0 1 1 279 81.341l-6.7-3.983-7.83 6.654 4.785 2.844a3.5 3.5 0 0 1-1.792 6.509zM291.9 72.336a3.488 3.488 0 0 1-1.785-.492l-9.576-5.692a3.5 3.5 0 0 1-.479-5.675l13.24-11.252a3.5 3.5 0 1 1 4.533 5.334l-9.506 8.079 5.365 3.189a3.5 3.5 0 0 1-1.791 6.509zM224.34 97.743a3.5 3.5 0 0 1-3.258-2.22L217.3 85.9a3.5 3.5 0 1 1 6.515-2.56l1.99 5.065 7.829-6.654-2.808-7.151a3.5 3.5 0 0 1 6.515-2.56l3.723 9.475a3.5 3.5 0 0 1-.99 3.947L226.606 96.91a3.5 3.5 0 0 1-2.266.833zM199.725 118.665a3.5 3.5 0 0 1-2.268-6.167l11.562-9.827-2.808-7.148a3.5 3.5 0 1 1 6.515-2.56l3.723 9.476a3.5 3.5 0 0 1-.991 3.946l-13.467 11.447a3.491 3.491 0 0 1-2.266.833zM248.955 76.822A3.5 3.5 0 0 1 245.7 74.6l-3.8-9.675a3.5 3.5 0 1 1 6.516-2.56l2.01 5.115 7.829-6.654-2.8-7.132a3.5 3.5 0 1 1 6.514-2.56l3.717 9.46a3.5 3.5 0 0 1-.991 3.947l-13.473 11.448a3.5 3.5 0 0 1-2.267.833zM273.9 56.725a3.5 3.5 0 0 1-3.258-2.22l-4.164-10.6a3.5 3.5 0 0 1 6.516-2.559l2.372 6.038 9.621-8.177a3.5 3.5 0 0 1 4.533 5.334l-13.359 11.351a3.5 3.5 0 0 1-2.261.833zM57.9 331.835a11.294 11.294 0 0 1-8.013-3.3L9.394 287.92a14.626 14.626 0 0 1-4.287-10.127l-.143-8.551A14.64 14.64 0 0 1 10.14 257.8l39.729-33.762a9.489 9.489 0 0 1 13.36 1.084l11.1 13.058a9.476 9.476 0 0 1-1.084 13.36l-19.7 16.748a8.027 8.027 0 0 0-2.741 4.924l-2.265 15.041a8.028 8.028 0 0 0 1.735 6.294l4.056 4.02a7.09 7.09 0 0 0 4.369 2.024l7.14.623a9.544 9.544 0 0 1 8.712 9.239l.136 4.84a11.807 11.807 0 0 1-4.175 9.374l-5.294 4.5a11.26 11.26 0 0 1-7.318 2.668zm-3.5-102.464-39.727 33.762a7.668 7.668 0 0 0-2.71 5.992l.143 8.55a7.66 7.66 0 0 0 2.245 5.3l40.494 40.613a4.324 4.324 0 0 0 5.833.24l5.293-4.5a4.838 4.838 0 0 0 1.712-3.842l-.136-4.84a2.545 2.545 0 0 0-2.323-2.463l-7.141-.623a14.111 14.111 0 0 1-8.688-4.026l-4.172-4.134a2.948 2.948 0 0 1-.2-.219 15.033 15.033 0 0 1-3.41-11.974l2.265-15.041a15.029 15.029 0 0 1 5.13-9.216l19.7-16.748a2.478 2.478 0 0 0 .283-3.493L57.9 229.654a2.481 2.481 0 0 0-3.493-.283zm-21.975 60.394a3.5 3.5 0 0 1-2.588-1.144L21.081 279a8.83 8.83 0 0 1 1.2-12.986l11.6-8.778a3.5 3.5 0 0 1 5.58 3.264l-3.574 26.233a3.5 3.5 0 0 1-3.467 3.028zM31.394 267.9l-4.888 3.7a1.83 1.83 0 0 0-.249 2.691l3.711 4.076zM149.394 169.769c-.095 0-.191 0-.287-.012a3.5 3.5 0 0 1-3.205-3.771l.19-2.333a11.3 11.3 0 0 1 3.97-7.747l8.249-7.011a11.358 11.358 0 0 1 7.976-2.691l2.621.141a3.5 3.5 0 1 1-.375 6.99l-2.621-.141a4.366 4.366 0 0 0-3.067 1.035l-8.25 7.012a4.34 4.34 0 0 0-1.526 2.978l-.19 2.333a3.5 3.5 0 0 1-3.485 3.217zM140.87 218.775a3.5 3.5 0 0 1-2.268-6.167l6.582-5.595a3.5 3.5 0 0 1 4.534 5.334l-6.583 5.595a3.483 3.483 0 0 1-2.265.833zM163.846 244.045a3.5 3.5 0 0 1-2.251-6.18L180 222.418a3.5 3.5 0 0 1 4.5 5.361l-18.4 15.447a3.485 3.485 0 0 1-2.254.819z" fill="#ff901f" opacity="1" data-original="#000000"></path><path d="M174.282 235.371a3.5 3.5 0 0 1-2.306-6.135l3.866-3.381c.027-.024.055-.048.083-.07a5.4 5.4 0 0 0 1.753-5.961 17.443 17.443 0 0 0-.547-1.335 3.5 3.5 0 0 1 6.367-2.909c.287.629.545 1.258.766 1.872a12.413 12.413 0 0 1-3.851 13.7l-3.828 3.349a3.485 3.485 0 0 1-2.303.87zM167.206 228.527c-8.088 0-12.769-8.012-12.976-8.376a3.5 3.5 0 0 1 6.068-3.488c.07.118 3.247 5.4 7.64 4.815a3.5 3.5 0 0 1 .918 6.94 12.694 12.694 0 0 1-1.65.109zM214.5 209.287a3.5 3.5 0 0 1-3.313-4.632l4.553-13.336a3.5 3.5 0 1 1 6.625 2.262l-4.553 13.336a3.5 3.5 0 0 1-3.312 2.37zM205.163 236.63a3.5 3.5 0 0 1-3.313-4.63l5.479-16.049a3.5 3.5 0 0 1 6.625 2.262l-5.479 16.048a3.5 3.5 0 0 1-3.312 2.369zM239.024 217.291a3.428 3.428 0 0 1-.482-.034 3.5 3.5 0 0 1-2.989-3.945l1.84-13.342a3.5 3.5 0 0 1 6.934.956l-1.84 13.342a3.5 3.5 0 0 1-3.463 3.023zM234.889 247.268a3.428 3.428 0 0 1-.482-.034 3.5 3.5 0 0 1-2.989-3.945L234 224.54a3.5 3.5 0 0 1 6.934.956l-2.586 18.749a3.5 3.5 0 0 1-3.459 3.023z" fill="#ff901f" opacity="1" data-original="#000000"></path><circle cx="100.585" cy="210.757" r="3.57" fill="#ff901f" opacity="1" data-original="#000000"></circle></g></svg>