<?xml version="1.0" encoding="iso-8859-1"?>
<!-- Generator: Adobe Illustrator 19.0.0, SVG Export Plug-In . SVG Version: 6.00 Build 0)  -->
<svg version="1.1" id="Capa_1" xmlns="http://www.w3.org/2000/svg" xmlns:xlink="http://www.w3.org/1999/xlink" x="0px" y="0px"
	 viewBox="0 0 512 512" style="enable-background:new 0 0 512 512;" xml:space="preserve">
<g>
	<g>
		<path d="M131.618,64.4c-10.719-10.72-10.719-28.066,0-38.786c5.858-5.858,5.858-15.354,0-21.212
			c-5.857-5.858-15.354-5.858-21.212,0c-22.39,22.39-22.39,58.82,0,81.21c10.719,10.719,10.719,28.066,0,38.786
			c-5.858,5.858-5.858,15.354,0,21.212c5.857,5.858,15.355,5.858,21.212,0C154.008,123.22,154.008,86.79,131.618,64.4z"/>
	</g>
</g>
<g>
	<g>
		<path d="M221.615,64.4c-10.719-10.72-10.719-28.066,0-38.786c5.858-5.858,5.858-15.354,0-21.212
			c-5.857-5.858-15.354-5.858-21.212,0c-22.39,22.39-22.39,58.82,0,81.21c10.719,10.719,10.719,28.066,0,38.786
			c-5.858,5.858-5.858,15.354,0,21.212c5.857,5.858,15.356,5.858,21.212,0C244.005,123.22,244.005,86.79,221.615,64.4z"/>
	</g>
</g>
<g>
	<g>
		<path d="M311.612,64.4c-10.719-10.72-10.719-28.066,0-38.786c5.858-5.858,5.858-15.354,0-21.212
			c-5.857-5.858-15.355-5.858-21.212,0c-22.39,22.39-22.39,58.82,0,81.21c10.719,10.719,10.719,28.066,0,38.786
			c-5.858,5.858-5.858,15.354,0,21.212c5.857,5.858,15.356,5.858,21.212,0C334.003,123.22,334.003,86.79,311.612,64.4z"/>
	</g>
</g>
<g>
	<g>
		<path d="M377.004,390.996C451.441,390.996,512,330.436,512,256c0-24.812-20.186-44.999-44.999-44.999h-45.288
			c0.191-4.987,0.289-9.988,0.289-15c0-8.284-6.716-15-15-15H15.016c-8.284,0-15,6.716-15,15
			c0,81.992,26.313,168.005,81.151,225.993H15.016c-11.123,0-18.401,11.737-13.417,21.707
			c10.266,20.529,26.021,37.763,45.566,49.837c19.539,12.072,42.001,18.452,64.956,18.452h197.777
			c46.779,0,89.58-26.408,110.522-68.29c4.974-9.949-2.268-21.707-13.417-21.707H340.85c8.888-9.398,17.213-19.761,24.889-30.999
			H377.004z M419.396,241h47.606c8.271,0,15,6.729,15,15c0,55.636-43.5,101.296-98.273,104.776
			C402.48,324.491,414.444,283.523,419.396,241z M378.641,451.794c-17.41,18.922-42.068,30.199-68.744,30.199H112.121
			c-26.675,0-51.332-11.277-68.743-30.199C56.595,451.794,371.489,451.794,378.641,451.794z M296.161,421.995H125.857
			c-55.239-41.79-91.772-123.093-95.523-211.193l361.35,0.2C388.37,288.846,357.337,375.713,296.161,421.995z"/>
	</g>
</g>
<g>
</g>
<g>
</g>
<g>
</g>
<g>
</g>
<g>
</g>
<g>
</g>
<g>
</g>
<g>
</g>
<g>
</g>
<g>
</g>
<g>
</g>
<g>
</g>
<g>
</g>
<g>
</g>
<g>
</g>
</svg>
