<svg id="Icons" height="512" viewBox="0 0 60 60" width="512" xmlns="http://www.w3.org/2000/svg"><path d="m29.423 59.461a.5.5 0 0 1 -.274-.919l1.807-1.181-3.356 1.939a.5.5 0 0 1 -.523-.852l3.91-2.548-5.487 3.168a.5.5 0 0 1 -.517-.855l.866-.547-1.949 1.123a.5.5 0 0 1 -.517-.855l3.794-2.4-4.94 2.852a.5.5 0 0 1 -.517-.856l5.992-3.8-7.112 4.113a.5.5 0 0 1 -.517-.856l6.721-4.23-7.712 4.452a.5.5 0 0 1 -.52-.854l12.318-7.891-13.5 7.8a.5.5 0 0 1 -.515-.857l7.245-4.524-7.73 4.463a.5.5 0 0 1 -.513-.859l3.47-2.143-3.431 1.98a.5.5 0 0 1 -.52-.853l13.243-8.5-13.288 7.668a.5.5 0 0 1 -.518-.856l9.518-6.013-9.468 5.465a.5.5 0 0 1 -.518-.855l8.752-5.534-8.692 5.017a.5.5 0 0 1 -.515-.857l2.6-1.617-2.441 1.411a.5.5 0 0 1 -.525-.85l10.72-7.068-10.764 6.209a.5.5 0 0 1 -.518-.855l3.009-1.911-2.861 1.653a.5.5 0 0 1 -.522-.853l4.2-2.718-4.087 2.36a.5.5 0 0 1 -.533-.846l7.2-4.93-7.209 4.162a.5.5 0 0 1 -.529-.847l3.75-2.517-3.636 2.1a.5.5 0 0 1 -.553-.83l6.158-4.7-6.246 3.606a.5.5 0 0 1 -.567-.819l4.455-3.669-4.287 2.475a.5.5 0 0 1 -.551-.832l1.1-.824a.567.567 0 0 1 -.422-.208.5.5 0 0 1 .075-.666l2.92-2.585a.5.5 0 0 1 .234-.56l1.184-.682a.5.5 0 0 1 .581.807l-.543.482 2.232-1.284a.5.5 0 0 1 .551.832l-.705.529 2.361-1.361a.5.5 0 0 1 .568.818l-4.455 3.669 7.775-4.487a.5.5 0 0 1 .553.83l-6.159 4.7 9.577-5.536a.5.5 0 0 1 .529.847l-3.741 2.514 5.825-3.362a.5.5 0 0 1 .532.845l-7.2 4.93 10-5.776a.5.5 0 0 1 .521.852l-4.2 2.717 6.184-3.57a.5.5 0 0 1 .517.854l-3.021 1.919 4.805-2.773a.5.5 0 0 1 .525.849l-10.72 7.07 13.718-7.92a.5.5 0 0 1 .515.857l-2.609 1.624 4.3-2.482a.5.5 0 0 1 .518.855l-8.733 5.523 9.663-5.579a.5.5 0 0 1 .518.855l-9.524 6.018 10.067-5.812a.5.5 0 0 1 .52.854l-13.243 8.497 13.995-8.079a.5.5 0 0 1 .513.858l-3.483 2.152 3.768-2.175a.5.5 0 0 1 .515.856l-7.241 4.522 7.281-4.2a.5.5 0 0 1 .519.854l-12.324 7.889 11.566-6.677a.5.5 0 0 1 .516.855l-6.726 4.234 5.589-3.226a.5.5 0 0 1 .517.856l-5.971 3.781 4.843-2.8a.5.5 0 0 1 .518.855l-3.8 2.4 2.713-1.555a.5.5 0 0 1 .516.856l-.955.6a.5.5 0 0 1 .466.88l-3.914 2.549 2.8-1.614a.5.5 0 0 1 .523.851l-1.8 1.18.749-.432a.5.5 0 0 1 .531.846l-2.59 1.762 1.47-.849a.5.5 0 0 1 .534.844l-.888.614a.5.5 0 0 1 .436.859l-1.697 1.554.161-.092a.5.5 0 0 1 .5.866l-4.089 2.361a.5.5 0 0 1 -.588-.8l1.694-1.557-6.288 3.629a.5.5 0 0 1 -.534-.843l.62-.429-2.618 1.511a.5.5 0 0 1 -.531-.846l2.582-1.756-4.591 2.651a.5.5 0 0 1 -.25.066z" fill="#006054"/><path d="m29.461 20.487a.5.5 0 0 1 -.363-.843l2.164-2.29-4.982 2.876a.5.5 0 0 1 -.577-.81l3.961-3.428-3.384 1.953a.5.5 0 0 1 -.557-.827l1.77-1.381-1.213.7a.5.5 0 0 1 -.61-.78l2.336-2.428-1.726 1a.5.5 0 0 1 -.659-.721l.717-1.017a.515.515 0 0 1 -.453-.25.5.5 0 0 1 .182-.682l1.659-.957a.5.5 0 0 1 .659.72l-.639.906 2.821-1.628a.5.5 0 0 1 .611.779l-2.335 2.421 4.382-2.531a.5.5 0 0 1 .557.828l-1.774 1.383 1.707-.985a.5.5 0 0 1 .577.811l-3.961 3.427 3.4-1.962a.5.5 0 0 1 .614.777l-2.165 2.29 1.561-.9a.5.5 0 0 1 .653.73l-.525.71a.5.5 0 0 1 .378.916l-1.931 1.116a.5.5 0 0 1 -.652-.729l.5-.676-2.453 1.415a.489.489 0 0 1 -.25.067z" fill="#aad2e2"/><path d="m19.677 35.476a.5.5 0 0 1 -.279-.916l9.244-6.178-10.594 6.118a.5.5 0 0 1 -.529-.848l8.787-5.912-9.764 5.637a.5.5 0 0 1 -.532-.846l7.969-5.439-8.7 5.021a.5.5 0 0 1 -.53-.846l5.605-3.793-5.074 2.926a.5.5 0 0 1 -.542-.838l5.672-4.076-5.13 2.962a.5.5 0 0 1 -.54-.84l2.674-1.9-2.134 1.229a.5.5 0 0 1 -.567-.819l3.194-2.629-2.627 1.517a.5.5 0 0 1 -.622-.768l1.979-2.2-1.073.619a.5.5 0 0 1 -.5-.865l3.806-2.2a.5.5 0 0 1 .622.767l-1.978 2.2 5.136-2.959a.5.5 0 0 1 .568.818l-3.2 2.63 5.982-3.448a.5.5 0 0 1 .54.84l-2.669 1.9 4.744-2.74a.5.5 0 0 1 .542.839l-5.676 4.077 8.519-4.916a.5.5 0 0 1 .53.846l-5.6 3.789 8.03-4.635a.5.5 0 0 1 .532.845l-7.971 5.442 10.89-6.287a.5.5 0 0 1 .529.847l-8.788 5.913 11.188-6.46a.5.5 0 0 1 .528.849l-9.246 6.18 10.57-6.1a.5.5 0 0 1 .524.852l-5.625 3.668 6.292-3.632a.5.5 0 0 1 .675.17.5.5 0 0 1 -.149.68l-5.809 3.833 5.617-3.242a.5.5 0 0 1 .536.843l-6.687 4.66 6.154-3.553a.5.5 0 0 1 .537.842l-4.156 2.915 3.621-2.09a.5.5 0 0 1 .561.824l-4.522 3.61 3.964-2.288a.5.5 0 0 1 .563.822l-1.9 1.528 1.342-.771a.5.5 0 0 1 .585.8l-2.3 2.074a.49.49 0 0 1 .073.1.5.5 0 0 1 -.183.682l-2.155 1.244a.5.5 0 0 1 -.585-.8l.95-.856-2.877 1.656a.5.5 0 0 1 -.563-.822l1.9-1.528-4.07 2.35a.5.5 0 0 1 -.562-.823l4.524-3.611-7.684 4.435a.5.5 0 0 1 -.537-.842l4.154-2.912-6.51 3.759a.5.5 0 0 1 -.537-.843l6.683-4.656-9.527 5.5a.5.5 0 0 1 -.527-.849l5.818-3.853-8.145 4.7a.5.5 0 0 1 -.523-.851l5.619-3.664-7.824 4.516a.5.5 0 0 1 -.25.07z" fill="#026d63"/><path d="m27.993 42.5a.5.5 0 0 1 -.353-.854l2.295-2.287-2.655 1.527a.5.5 0 0 1 -.585-.8l2.456-2.219-1.871 1.08a.5.5 0 0 1 -.568-.818l1.331-1.1-.763.44a.5.5 0 0 1 -.6-.793l2.992-2.876-2.392 1.383a.5.5 0 0 1 -.585-.8l2.424-2.185-1.839 1.058a.5.5 0 0 1 -.57-.818l1.453-1.209-.883.51a.5.5 0 0 1 -.576-.811l1.9-1.634-1.324.764a.5.5 0 0 1 -.557-.828l.4-.311a.5.5 0 0 1 -.5-.2.5.5 0 0 1 .078-.668l2.064-1.8-1.485.856a.5.5 0 0 1 -.565-.82l1.07-.87-.5.291a.5.5 0 0 1 -.572-.814l1.662-1.406-1.09.629a.5.5 0 0 1 -.572-.815l.325-.274a.5.5 0 0 1 -.49-.6l.33-1.639a.489.489 0 0 1 -.272-.224.5.5 0 0 1 .182-.682l.5-.291a.5.5 0 0 1 .74.531l-.285 1.417 3.408-1.968a.5.5 0 0 1 .573.816l-.04.033 1.041-.6a.5.5 0 0 1 .572.815l-1.663 1.4 1.093-.63a.5.5 0 0 1 .565.82l-1.067.868.5-.29a.5.5 0 0 1 .579.809l-2.064 1.8 1.487-.858a.5.5 0 0 1 .557.827l-.4.31a.506.506 0 0 1 .5.2.5.5 0 0 1 -.082.668l-1.9 1.634 1.325-.765a.5.5 0 0 1 .571.818l-1.45 1.206.881-.509a.5.5 0 0 1 .585.8l-2.425 2.186 1.843-1.064a.5.5 0 0 1 .6.793l-2.988 2.871 2.394-1.382a.5.5 0 0 1 .569.818l-1.331 1.1.764-.441a.5.5 0 0 1 .585.8l-2.455 2.233 1.873-1.081a.5.5 0 0 1 .6.787l-2.3 2.288 1.694-.978a.5.5 0 0 1 .631.756l-.581.685a.5.5 0 0 1 .452.89l-2.442 1.41a.5.5 0 0 1 -.631-.756l.575-.679-2.507 1.448a.489.489 0 0 1 -.241.072z" fill="#1ca392"/><path d="m31.727 39.557a.5.5 0 0 1 -.293-.906l1.323-.956-.477.275a.5.5 0 0 1 -.55-.833l2.27-1.705-1.724.995a.5.5 0 0 1 -.552-.83l2.728-2.081-2.172 1.255a.5.5 0 0 1 -.569-.817l4.4-3.65-3.831 2.211a.5.5 0 0 1 -.558-.827l3.395-2.664-2.837 1.638a.5.5 0 0 1 -.564-.821l3.974-3.214-3.41 1.973a.5.5 0 0 1 -.562-.823l3.83-3.073-3.268 1.883a.5.5 0 0 1 -.554-.829l2.966-2.283-2.412 1.391a.5.5 0 0 1 -.556-.827l2.817-2.191-2.261 1.3a.5.5 0 0 1 -.579-.808l3.346-2.933-2.767 1.6a.5.5 0 0 1 -.566-.82l1.213-.993-.647.373a.5.5 0 0 1 -.6-.794l1.388-1.327-.794.458a.5.5 0 0 1 -.6-.793l.344-.331a.5.5 0 0 1 -.44-.733l.449-.853a.5.5 0 0 1 -.2-.93l1.12-.648a.5.5 0 0 1 .692.666l-.369.7 1.617-.932a.5.5 0 0 1 .6.793l-.139.134.826-.477a.5.5 0 0 1 .595.794l-1.387 1.326 2.37-1.368a.5.5 0 0 1 .566.819l-1.214.993 1.845-1.064a.5.5 0 0 1 .579.809l-3.346 2.933 4.15-2.395a.5.5 0 0 1 .557.827l-2.818 2.191 2.649-1.525a.5.5 0 0 1 .554.829l-2.962 2.281 2.408-1.39a.5.5 0 0 1 .562.822l-3.833 3.075 3.271-1.888a.5.5 0 0 1 .564.822l-3.972 3.209 3.408-1.968a.5.5 0 0 1 .558.826l-3.395 2.664 2.837-1.638a.5.5 0 0 1 .569.818l-4.4 3.65 3.829-2.211a.5.5 0 0 1 .552.83l-2.728 2.081 2.178-1.252a.5.5 0 0 1 .55.833l-2.27 1.705 1.724-1a.5.5 0 0 1 .543.838l-1.327.959.784-.452a.5.5 0 0 1 .5.865l-9.243 5.337a.5.5 0 0 1 -.254.072z" fill="#0e8e7e"/><path d="m29.232 55.454a.5.5 0 0 1 -.288-.909l2.666-1.878-4.377 2.526a.5.5 0 0 1 -.536-.842l3.735-2.608-5.259 3.036a.5.5 0 0 1 -.54-.84l4.805-3.418-6.224 3.593a.5.5 0 0 1 -.541-.84l6.851-4.892-8.224 4.746a.5.5 0 0 1 -.534-.844l8.991-6.221-10.049 5.8a.5.5 0 0 1 -.519-.854l2.23-1.421-2.119 1.227a.5.5 0 0 1 -.521-.852l4.721-3.045-4.22 2.436a.5.5 0 0 1 -.529-.848l9.915-6.675-9.366 5.409a.5.5 0 0 1 -.565-.821l4.388-3.547-.976.564a.5.5 0 0 1 -.57-.818l1.511-1.252-1.6.922a.5.5 0 0 1 -.575-.812l2.63-2.252-2.861 1.651a.5.5 0 0 1 -.562-.824l2.262-1.8-2.405 1.389a.5.5 0 0 1 -.565-.822l3.288-2.661-3.381 1.951a.5.5 0 0 1 -.54-.839l.409-.291a.5.5 0 0 1 -.481-.858l4.5-3.757-3.927 2.267a.5.5 0 0 1 -.56-.825l3.556-2.812-3 1.73a.5.5 0 0 1 -.549-.833l2.1-1.566-1.551.895a.5.5 0 0 1 -.555-.828l3.106-2.407-2.547 1.473a.5.5 0 0 1 -.548-.835l1.86-1.375-1.312.753a.5.5 0 0 1 -.55-.833l2.223-1.663-1.673.965a.5.5 0 0 1 -.551-.832l2.316-1.74-1.765 1.023a.5.5 0 0 1 -.556-.827l3.212-2.5-2.656 1.533a.5.5 0 0 1 -.547-.835l1.772-1.308-1.225.707a.5.5 0 0 1 -.573-.814l4.157-3.519-3.564 2.06a.5.5 0 0 1 -.569-.817l1.039-.864a.5.5 0 0 1 -.21-.93l4.409-2.546a.5.5 0 0 1 .569.817l-.637.528 3.3-1.9a.5.5 0 0 1 .574.815l-4.159 3.519 4.112-2.373a.5.5 0 0 1 .547.835l-1.775 1.299 1.22-.7a.5.5 0 0 1 .556.827l-3.212 2.5 2.656-1.533a.5.5 0 0 1 .551.832l-2.321 1.742 1.77-1.022a.5.5 0 0 1 .55.833l-2.223 1.663 1.673-.964a.5.5 0 0 1 .548.835l-1.86 1.375 1.312-.757a.5.5 0 0 1 .555.828l-3.106 2.406 2.551-1.473a.5.5 0 0 1 .549.833l-2.1 1.566 1.551-.891a.5.5 0 0 1 .56.825l-3.556 2.812 3-1.729a.5.5 0 0 1 .57.816l-4.5 3.757 3.926-2.271a.5.5 0 0 1 .54.84l-.435.31a.5.5 0 0 1 .459.867l-3.291 2.663 2.727-1.574a.5.5 0 0 1 .663.151.5.5 0 0 1 -.1.673l-2.265 1.8 1.7-.984a.5.5 0 0 1 .575.813l-2.63 2.252 2.055-1.186a.5.5 0 0 1 .569.818l-1.51 1.25 1.372-.791a.5.5 0 0 1 .565.821l-4.385 3.547 16.391-9.463a.5.5 0 0 1 .529.847l-9.916 6.676 9.387-5.419a.5.5 0 0 1 .52.853l-4.724 3.046 4.145-2.394a.5.5 0 0 1 .519.855l-2.234 1.419.9-.521a.5.5 0 0 1 .534.844l-8.991 6.221 6.594-3.806a.5.5 0 0 1 .541.84l-6.852 4.893 6.4-3.695a.5.5 0 0 1 .54.84l-4.8 3.418 6.2-3.578a.5.5 0 0 1 .536.842l-3.73 2.6 3.882-2.231a.5.5 0 0 1 .538.841l-2.67 1.882 2.157-1.245a.5.5 0 0 1 .549.833l-2.16 1.611 1.611-.929a.5.5 0 0 1 .584.8l-1.259 1.13.122-.07a.5.5 0 0 1 .5.865l-4.272 2.467a.5.5 0 0 1 -.584-.8l1.255-1.126-4.839 2.793a.5.5 0 0 1 -.548-.833l2.163-1.613-4.365 2.519a.491.491 0 0 1 -.25.062z" fill="#0e8e7e"/><path d="m30.028 27.468a.5.5 0 0 1 -.4-.8l.409-.533-1.191.687a.5.5 0 0 1 -.6-.793l.426-.411-.357.206a.5.5 0 0 1 -.6-.785l1.247-1.255-.685.4a.5.5 0 0 1 -.614-.776l1.608-1.708-.994.574a.5.5 0 0 1 -.618-.771l1.741-1.903-1.123.647a.5.5 0 0 1 -.615-.774l1.328-1.421-.713.411a.5.5 0 0 1 -.612-.088.5.5 0 0 1 -.058-.617l.832-1.282a.5.5 0 0 1 -.377-.916l1.658-.956a.5.5 0 0 1 .612.088.5.5 0 0 1 .058.617l-.811 1.248 1.821-1.057a.5.5 0 0 1 .616.774l-1.328 1.426 1.032-.6a.5.5 0 0 1 .618.77l-1.741 1.9 1.123-.647a.5.5 0 0 1 .614.775l-1.608 1.708.994-.573a.5.5 0 0 1 .6.785l-1.248 1.255.644-.371a.5.5 0 0 1 .6.793l-.475.458a.507.507 0 0 1 .5.153.5.5 0 0 1 .02.635l-.595.777a.5.5 0 0 1 .163.924l-1.656.956a.49.49 0 0 1 -.245.07z" fill="#026d63"/><path d="m29.512 51.426a.5.5 0 0 1 -.351-.857l.637-.628-1.4.809a.5.5 0 0 1 -.631-.756l1.973-2.327-2.39 1.379a.5.5 0 0 1 -.656-.725l1.2-1.671-.033.019a.5.5 0 0 1 -.5-.865l2.05-1.184a.5.5 0 0 1 .655.725l-1.2 1.671 2.865-1.654a.5.5 0 0 1 .632.756l-1.973 2.327 2.3-1.324a.5.5 0 0 1 .6.789l-.665.655a.5.5 0 0 1 .407.908l-3.265 1.885a.49.49 0 0 1 -.255.068z" fill="#aad2e2"/><g fill="#262626"><path d="m33.462 48.009c-.028-4.52-6.957-4.736-6.926-.093-.077 4.621 7.027 4.82 6.926.093zm-5.98.076c.056-3.105 4.781-3.3 5.042-.183-.231 3.027-5.1 3.405-5.042.183z"/><path d="m42.964 6.56h13.456c3.68-.198 4.18-5.905.28-6.115q-27.791-.022-55.62-.005c-.566 0-.857 1.12-.16 1.12 3.325 1.207 70.046-3.417 55.66 3.879h-18.48c-5.052 0-8.33-.474-8.57 5.092-2.177-.366-4.412.782-4.117 3.2-2.921.984-6.885 2.354-6.938 5.951-4.074.919-4.5 4.52-3.958 8.025 0 1.047-.39 3.016-.089 4.228-6.828 4.282-3.756 10.227-1.339 16.175 1.011 9.764 9.229 11.89 17.669 11.382 6.908.2 15.073-2.261 15.713-10.339 2.231-5.953 6.374-13.036-.785-17.317.294-1.172-.1-3.151-.1-4.18.536-3.906.2-6.753-4.112-7.935.017-3.371-3.375-5.107-6.889-6.138.312-2.391-1.957-3.419-4.072-3.049.252-5.91 8.108-3.974 12.451-3.974zm-19.254 8.8c.673-.266 3.469-1.483 3.767-.143-.281 6.1.334 11.342-.279 17.579l-7.872-5.247c.48-4.529-1.507-10.803 4.384-12.19zm16.99 19.188c-.353.174-.4.529-.065.739.233 3.512-3.04 5.9-3.276 9.048 9.981 8.434-5.072 11.6-11.613 9.614-4.027-.938-8.822-4.458-4.8-8.422 1.08-1.066 1.854-.674 1.555-2.6-2.329-4.606-3.806-8.582-3.189-14.055l7.819 5.213c-.747 9.122 6.33 8.279 5.4.229l8.152-5.435a45.079 45.079 0 0 1 .017 5.669zm-8.795.038c.261 2.105-1.411 5.632-3.378 2.848-.274-3.291.166-6.97 0-10.337a2.872 2.872 0 0 0 2.954-.107c-.009 1.634.352 4.094.421 6.416a.693.693 0 0 0 -.002 1.18zm-.424-12.13c0 1.337.212 4.018-1.434 4.084-3-1.066-.871-6.974-1.454-9.572a1.412 1.412 0 1 1 2.821.064c.019 1.906-.067 3.461.063 5.424zm-15.996 1.136c.339-1.629 1.63-2.156 2.98-2.774-.047 4.312-.265 8.691-.113 13a16.367 16.367 0 0 1 -2.852-2.204c.046-2.589-.321-5.447-.015-8.022zm33.305 15.467c-1.359 4.883-3.158 10.093-4.946 14.841-4.551 6.476-22.954 6.371-27.611-.047-1.723-4.753-3.607-9.87-4.919-14.753-.444-2.931 1.622-4.527 3.543-6.341a19.019 19.019 0 0 0 3.57 2.568 11.116 11.116 0 0 0 1.789 5.988c.6 1.052 1.562 2.065.846 3.158-2.989.814-3.341 4.19-2.372 6.882 1.194 2.532 5.527 3.569 7.908 3.943 4.491.7 13.862.2 14.925-5.52.379-2.371.286-4.424-2.211-5.279-1.664-2.613 3-6.113 2.448-9.364a22.54 22.54 0 0 0 3.286-2.265c1.845 1.724 4.078 3.391 3.744 6.189zm-4.38-15.659c.345 2.441-.113 5.134 0 7.6 0 1.639-1.4 1.837-2.57 2.789.218-4.3-.212-8.94-.319-13.049 1.279.576 2.566 1.152 2.889 2.66zm-3.933.59c0 1.141.062 2.357.13 3.607l-8.084 5.39c-.074-5.426.167-10.859.029-16.277.132-2.318.862-2.684 4.488-.9 3.899 1.918 3.437 4.565 3.437 8.182zm-8.577-12.533a1.8 1.8 0 0 1 1.5 2 1.758 1.758 0 0 0 -1.9 1.553 2.823 2.823 0 0 0 -2.971.043 1.57 1.57 0 0 0 -1.948-1.553c-.068-1.615 1.5-2.432 2.994-2.065.61.205 1.644-.221 2.325.022z"/></g></svg>