<?xml version="1.0" encoding="utf-8"?>
<!-- Generator: Adobe Illustrator 27.5.0, SVG Export Plug-In . SVG Version: 6.00 Build 0)  -->
<svg version="1.1" id="Layer_1" xmlns="http://www.w3.org/2000/svg" xmlns:xlink="http://www.w3.org/1999/xlink" x="0px" y="0px"
	 viewBox="0 0 801.28 695.89" style="enable-background:new 0 0 801.28 695.89;" xml:space="preserve">
<style type="text/css">
	.st0{stroke:#000000;stroke-miterlimit:10;}
	.st1{fill:#FFFFFF;stroke:#000000;stroke-miterlimit:10;}
	.st2{fill:#1D2C49;stroke:#1D2C49;stroke-miterlimit:10;}
	.st3{fill:#FFA500;stroke:#FFA500;stroke-miterlimit:10;}
</style>
<rect x="103" y="59.89" class="st0" width="595.28" height="582"/>
<rect x="183.33" y="89.06" class="st1" width="435" height="407.16"/>
<path class="st2" d="M200.25,104.39h195c0,0-10.88,7.88-13.25,17.88s-1.88,17.12-0.12,21.88c0,0,0,2.38-1.38,4.12
	s-1.25-3.62-7.62-3.25s-15.25-1.62-27.12,19.75c0,0-3.88,9.88-4.5,18.38s-1.38,20.12-0.25,23.12s-12.12,2.25-12.12,2.25
	s-3.38,0.88-3.5,2.25s0,8.62,0.12,12.75s-0.88,6.5-1.25,10.38s-2.88,7.38-2.5,11.75s7.25,4.62,11.25,5s3.62,1.25,1.38,1.88
	s-8.88,0.75-8.62,8.75s2.75,27,3.38,32.12s-3.88,0.5-3.38,2s-1.75-0.88-3.12,4.88s0.38,4.75,1,5.5s1.38,0.75,1.38,0.75l-1.88,2.62
	l-0.62,3l1,2.12l1,0.88c0,0-2.5,2.75,0.12,5.75s1.38,1.62,1.12,4.5s-5.5,24.25-4.12,33.62s-3.25,12.25-5.25,16.38
	s-13.62,22.25-13.12,26.5s-1.12,8.75-2.38,11.12s-6.75,8-6.5,13.88s0.62,6.75,3.38,9.25c0,0-2.38,8.12-3.25,11.5
	s-4.25,16.62-4.88,19s-1.75,6.88-1.38,9.25l-0.38,1h-87.62V104.39z"/>
<path class="st2" d="M318.12,476.89H422.5c0,0,0.88-12.38,3.75-18s2.25-12.5,2-17s0.38-12.38-3.25-14.38l-0.62-5.5
	c0,0-3.62-8.25-2.62-10.38c-0.25-2.38-1-22.5-1-22.5s1.12-3.75,3.25-5.25c0.62-1.88,1.12-12.75-1.12-15c-2-2.25-3.5-2.12-8-2.62
	s-2,4.62-17.5-19.38c-2.62-4.5-5.38-8.75-6.62-10.38s-3.12-1.62-6-1.88s-3.25-0.38-5.75-5s-2.5-4.62-2.5-4.62s-0.64-1.25-3.19,6.62
	c-2.56,7.88-5.18,0-10.18,19.62c-3.12,6.62-3.38,7.38-3.88,16.25c-1.25,4.5-3.88,5.62-6.62,7.38s-3.12,6.62-4.12,7.88
	s-5,1.25-7.12,8.75s-2.5,3.12-0.38,10.12c0,0-3.12,12-5,14.75s-4.88,10.38-5.75,13.88s-4.75,8.5-7.62,9s-6.12,11-6.5,13.88
	s-1.5,18.25,0,20.5C317,475.89,318.12,476.89,318.12,476.89z"/>
<path class="st3" d="M423,104.39h51.88h126.96v372.5H523.5h-38.88h-0.94c0,0-1-0.75-1.88-3.12s-11.31-6.5-14.44-7.31
	s-9.31-11-11.44-13.19c-1.38-2-1.5-3.56-1.5-3.56l-1.19-20.25c0,0-0.19-1.5,0.75-2.56s2.62-3.75,2.44-5.94s-1-11.06-1.5-12.19
	s-0.31-3-0.38-4s1.19-3.94,1.5-5s3.19-23.19,2.94-24.62s-0.12-12.75-2-13.94s-0.38-6.44-1-7.31s-2.88,0.31-3.69-2.62
	s-9.38-23.06-9.38-23.06l-5.69-11.75c0,0-15.38-22.06-17.19-23.75s-2.25-12.25-0.62-14.94c1.62-2.69,2.44,0.44,2.62,0.44
	s4.38,2.69,6.19,0.81s6.56-9.25,6.62-12.06c0.06-2.81,1.38-30.69,0.5-32c-0.31-1.31-1.06-6-6.06-7.75s0.12-3.62,0-6.25
	s-0.88-4.5,0.94-3.25s22.31,12.62,25,13s3.19,0.44,5.06,0.44s4.06,2.31,4.88,2c0.88,0,4,0.12,10.75-5.5s7.88-5,9.5-10.75
	s1.12-13.94,4.69-14.81s6.62,2.31,2.94-9.44c-1.75-11.31-1.31-11.81,0.31-11.94c1.44-0.75,1-0.56,4.25-4.19s3.31-3.81,3.5-4.19
	s0.19-1.62,0.19-1.62s1-0.62,1.31-0.88s1.88-0.75,2.19-0.75s-0.5-0.88,1-0.94c5.62,0,33.69,0.19,33.69,0.19v-3.19
	c0,0,0.06-1.06,0.75-1c0.69,0.06,1.25,0.12,1.5,0.44c0.25,0.31,7,0.19,7,0.19s1.19-1.06,3.31-1.06s20.88,0.06,20.88,0.06
	s0.44,1.75,1.38,1.75s2.5,0.25,2.44-0.75c3.12,0,11.25-0.06,11.25-0.06s0.44,0,0.38-2.69c0.06-2.31,0.12-1.94-7.81-1.94
	c-2.88,0-3.44-0.06-3.44-0.06s0.44-1-1.38-1s-2.69,0.94-2.69,1.5c0,0.56-0.81,0.5-0.81,0.5L551,160.83c0,0-1.06-0.12-0.69-3.25
	s-0.88-4.38-1.88-3.69c-1,0.69-1.75,1-1.88,1.19c-0.12,0.19-1.12-1-1.25-2.06c-0.12-1.06-0.19-11.19-0.19-11.38
	c0-0.19-0.56-1.69-1.25-1.25c-0.69,0.44-1.88-0.19-2.06,0.56s-0.06,14.62-0.06,14.62s-1.12,0.88-1.75-0.12s-1.25-0.44-1.12-1.62
	c0.12-1.19-0.75-2.06-0.75-2.06h-80.75c0,0-0.25-3.88-0.88-3.62s-4.88,0.38-4.88,0.38l-0.12-6.38c0,0-0.38-1.88-1.75-0.75
	c-1.25,0.12-1.12,5.62-1.25,6.25s-1.12,0.62-1.12,0.62v2.25l-4.5,0.5c0,0-6.12,1.12-7,1.75s-4.12,0.88-4.12,0.88l-1.5,0.25
	c0,0-1-2.75-1-3.12s-0.12-3-0.12-3s0.25,1-0.25-0.75s-0.25-3.25-0.25-3.25s7.88-2.88,9.25-5.38s1.38-12,0.12-15.88s-2-5-2-6
	s-0.38-4.25-0.38-4.25s-4.88-2.5-7.25-3.25s-5.88-3.38-5.88-3.38L423,104.39z"/>
<path class="st1" d="M272.5,587.64h-66.75v-45.5h66.75c0,0-0.5-13.12-13.12-17c-2.62-0.62-7.75-0.62-11-0.62s-47.62,0-47.62,0
	s-16.5,1.38-16.75,18.12s0,45,0,45s-1.88,18.75,26.38,18.75s43.5,0,43.5,0s12.75-0.5,18-12.88
	C272.88,590.14,272.5,587.64,272.5,587.64z"/>
<path class="st1" d="M306,606.39h54.83c0,0,18.5-1.33,18.67-18.5c0.62-21.63-0.12-32.5-28.17-31.5c-32.46,0-38.17,0-38.17,0h-4.67
	v-14.83h69.67c0,0-1-17.08-19.17-17.04s-53,0-53,0s-17.83,0.54-17.83,17.04s0,16.5,0,16.5s-1.83,16.17,24.67,16.33
	c26.5,0.17,46.83-0.17,46.83-0.17v14.33l-71.53-0.33c0,0,1.36,10.67,8.36,14.5c2.67,1.67,8,3.67,8,3.67"/>
<rect x="393.88" y="544.02" class="st1" width="13.12" height="13.5"/>
<rect x="393.88" y="572.02" class="st1" width="13.12" height="14.25"/>
<path class="st1" d="M512,540.89h-73.88v49.25h56.25l-0.12-17.38l-27.62-0.12c0,0-8.88-1.5-12.38-8c-2.38-6-4.12-5.88,1-5.88
	s56.75,0.38,56.75,0.38v30.12c0,0,0.38,17-18.38,17.12s-52.38,0-52.38,0l-5.75,0.06c0,0-12-2.06-14.88-13.68
	c0-11.38,0-51.88,0-51.88s1-16.12,17.25-16.38s58.25,0,58.25,0s8,1.62,11.5,5.88c2.5,4.5,4.38,6.75,4.38,8.12
	C512,539.89,512,540.89,512,540.89z"/>
<path class="st1" d="M548.33,524.4h48.5c0,0,19.67-1.01,19.83,18.82s0,41.17,0,41.17s2.83,22.11-24.5,22.06
	c-27.33-0.06-39.83,0-39.83,0s-24.5,2.44-24.33-20.22c0.17-22.67,0-44.5,0-44.5s1.5-8.5,5.17-11.67s6.67-4.67,8.17-4.83
	c1.86-0.64,3.33-0.83,3.33-0.83L548.33,524.4z"/>
<rect x="546" y="539.56" class="st0" width="53.67" height="51"/>
</svg>
