<svg xmlns="http://www.w3.org/2000/svg" version="1.1" xmlns:xlink="http://www.w3.org/1999/xlink" width="512" height="512" x="0" y="0" viewBox="0 0 511.498 511.498" style="enable-background:new 0 0 512 512" xml:space="preserve" class=""><g><path d="M504.382 50.646 469.774 3.281a7.999 7.999 0 0 0-11.179-1.74L277.657 133.748a7.999 7.999 0 0 0-1.739 11.179l6.816 9.328-12.93 9.448-6.817-9.329a8 8 0 0 0-11.179-1.74L24.9 318.427c-10.16 7.423-16.821 18.359-18.756 30.792s1.088 24.875 8.511 35.036l7.074 9.682c4.491 6.146 11.075 10.208 18.538 11.438 7.514 1.237 15.021-.539 21.132-5.004 2.871-2.098 6.487-2.627 9.918-1.457 3.603 1.229 6.28 4.044 7.345 7.723l26.208 90.486a19.94 19.94 0 0 0 12.694 13.321 19.609 19.609 0 0 0 6.341 1.053c4.082 0 8.111-1.275 11.474-3.732l42.13-30.783c6.59-4.814 9.479-13.366 7.187-21.279l-21.254-73.384 36.396-26.594c7.772-5.679 12.42-14.499 12.75-24.198.336-9.904-3.838-19.256-11.454-25.657l-4.835-4.065 107.248-78.362a7.999 7.999 0 0 0 1.739-11.179l-14.507-19.854 12.929-9.447 6.816 9.329a8 8 0 0 0 11.179 1.739l180.94-132.205a8.01 8.01 0 0 0 3.186-5.229 8.004 8.004 0 0 0-1.447-5.951zM21.954 351.68c1.277-8.21 5.676-15.432 12.385-20.333l220.448-161.074 13.632 18.658-244.73 178.816c-1.977-5.054-2.591-10.562-1.735-16.067zm168.884-33.561c3.828 3.218 5.927 7.907 5.759 12.865-.162 4.754-2.421 9.063-6.198 11.823l-31.694 23.158-3.284-11.34a28.351 28.351 0 0 1-.17-15.158l8.77 4.602a8.001 8.001 0 0 0 7.434-14.168l-7.802-4.094a26.598 26.598 0 0 1 1.886-1.525l17.457-12.755zm-34.738-6.757c-14.744 10.772-21.193 29.947-16.047 47.714l29.275 101.079c.427 1.476-.078 3.047-1.257 3.909l-42.13 30.783c-1.259.918-2.549.68-3.207.456a3.892 3.892 0 0 1-2.495-2.629l-26.208-90.487c-2.5-8.634-9.06-15.518-17.545-18.414a27.053 27.053 0 0 0-8.741-1.452 26.75 26.75 0 0 0-15.786 5.132c-2.617 1.912-5.845 2.67-9.092 2.136-3.299-.543-6.218-2.352-8.22-5.09l-2.354-3.222L277.86 201.849l9.788 13.395zm125.239-131.871-.359-.491-1.738-2.378 12.93-9.447 1.048 1.435 1.048 1.435zm37.385-3.098-25.169-34.446L461.576 19.18l25.169 34.446z" fill="#ff901f" opacity="1" data-original="#000000" class=""></path></g></svg>