<svg xmlns="http://www.w3.org/2000/svg" version="1.1" xmlns:xlink="http://www.w3.org/1999/xlink" width="512" height="512" x="0" y="0" viewBox="0 0 500 500" style="enable-background:new 0 0 512 512" xml:space="preserve" class=""><g><path d="M387.745 306.083c-7.231 0-14.031-2.816-19.145-7.93L201.849 131.401c-10.556-10.556-10.556-27.733 0-38.292l60.176-60.176C267.139 27.816 273.938 25 281.169 25c7.232 0 14.035 2.816 19.149 7.933L467.07 199.684c5.114 5.114 7.928 11.913 7.928 19.145s-2.815 14.031-7.928 19.145l-60.181 60.178c-5.113 5.115-11.912 7.931-19.144 7.931zM281.169 34.327c-4.74 0-9.199 1.847-12.551 5.2l-60.175 60.176c-6.918 6.922-6.918 18.184 0 25.104l166.751 166.751c6.922 6.917 18.179 6.917 25.101 0l60.18-60.178c6.922-6.919 6.922-18.182 0-25.101L293.725 39.527a17.646 17.646 0 0 0-12.556-5.2z" fill="#ff901f" opacity="1" data-original="#000000" class=""></path><path d="M362.94 290.561a4.648 4.648 0 0 1-3.297-1.366L210.807 140.358a4.664 4.664 0 0 1 0-6.594l91.876-91.874a4.662 4.662 0 0 1 6.594 0l148.836 148.837a4.665 4.665 0 0 1 0 6.594l-91.876 91.873a4.649 4.649 0 0 1-3.297 1.367zm-142.242-153.5L362.94 279.304l85.281-85.28L305.979 51.782z" fill="#ff901f" opacity="1" data-original="#000000" class=""></path><path d="M400.838 144.709a4.646 4.646 0 0 1-3.297-1.366l-40.885-40.883a4.663 4.663 0 0 1 0-6.594c5.729-5.729 13.343-8.882 21.444-8.882s15.716 3.156 21.44 8.882l4.595 4.595c5.729 5.727 8.885 13.341 8.885 21.443 0 8.099-3.156 15.713-8.885 21.44a4.65 4.65 0 0 1-3.297 1.365zM366.911 99.53l33.562 33.558a20.866 20.866 0 0 0 3.219-11.184 20.864 20.864 0 0 0-6.152-14.848l-4.595-4.595a20.857 20.857 0 0 0-14.846-6.15 20.858 20.858 0 0 0-11.188 3.219zM93.06 452.49a4.648 4.648 0 0 1-3.297-1.366l-40.885-40.883a4.662 4.662 0 0 1 0-6.594l215.907-215.905a4.66 4.66 0 0 1 6.594 0l40.881 40.883a4.66 4.66 0 0 1 0 6.594L96.357 451.124a4.648 4.648 0 0 1-3.297 1.366zm-34.291-45.546 34.291 34.289 209.308-209.311-34.287-34.289z" fill="#ff901f" opacity="1" data-original="#000000" class=""></path><path d="M82.49 475a4.648 4.648 0 0 1-3.297-1.366l-52.826-52.828a4.662 4.662 0 0 1 0-6.594l16.54-16.538a4.662 4.662 0 0 1 6.594 0l52.826 52.828a4.663 4.663 0 0 1 0 6.594l-16.54 16.538A4.648 4.648 0 0 1 82.49 475zm-46.231-57.491 46.231 46.234 9.946-9.943-46.232-46.234zM239.961 264.704a4.662 4.662 0 0 1-3.297-7.96l13.188-13.188a4.662 4.662 0 1 1 6.594 6.594l-13.188 13.188a4.652 4.652 0 0 1-3.297 1.366zM137.584 367.081a4.664 4.664 0 0 1-3.297-7.961l25.593-25.595a4.662 4.662 0 1 1 6.594 6.594l-25.594 25.595a4.646 4.646 0 0 1-3.296 1.367zm51.191-51.188a4.662 4.662 0 0 1-3.297-7.961l25.594-25.594a4.662 4.662 0 1 1 6.594 6.595l-25.593 25.593a4.653 4.653 0 0 1-3.298 1.367zM98.802 405.865a4.66 4.66 0 0 1-3.297-7.96l13.188-13.19a4.662 4.662 0 1 1 6.594 6.594L102.099 404.5a4.655 4.655 0 0 1-3.297 1.365zM362.708 141.954a4.648 4.648 0 0 1-3.297-1.366l-53.432-53.436-43.563 43.558a4.662 4.662 0 1 1-6.594-6.594l46.86-46.856a4.662 4.662 0 0 1 6.594 0l56.728 56.733a4.662 4.662 0 0 1 0 6.594 4.64 4.64 0 0 1-3.296 1.367z" fill="#ff901f" opacity="1" data-original="#000000" class=""></path></g></svg>